G04 #@! TF.GenerationSoftware,KiCad,Pcbnew,8.0.5*
G04 #@! TF.CreationDate,2024-10-14T22:09:33+02:00*
G04 #@! TF.ProjectId,Exchange_ProofOfConcept,45786368-616e-4676-955f-50726f6f664f,1.0*
G04 #@! TF.SameCoordinates,Original*
G04 #@! TF.FileFunction,Copper,L1,Top*
G04 #@! TF.FilePolarity,Positive*
%FSLAX46Y46*%
G04 Gerber Fmt 4.6, Leading zero omitted, Abs format (unit mm)*
G04 Created by KiCad (PCBNEW 8.0.5) date 2024-10-14 22:09:33*
%MOMM*%
%LPD*%
G01*
G04 APERTURE LIST*
G04 #@! TA.AperFunction,ComponentPad*
%ADD10C,1.400000*%
G04 #@! TD*
G04 #@! TA.AperFunction,ComponentPad*
%ADD11O,1.400000X1.400000*%
G04 #@! TD*
G04 #@! TA.AperFunction,ComponentPad*
%ADD12R,1.200000X1.200000*%
G04 #@! TD*
G04 #@! TA.AperFunction,ComponentPad*
%ADD13C,1.200000*%
G04 #@! TD*
G04 #@! TA.AperFunction,ComponentPad*
%ADD14R,2.200000X2.200000*%
G04 #@! TD*
G04 #@! TA.AperFunction,ComponentPad*
%ADD15O,2.200000X2.200000*%
G04 #@! TD*
G04 #@! TA.AperFunction,ComponentPad*
%ADD16C,1.600000*%
G04 #@! TD*
G04 #@! TA.AperFunction,ComponentPad*
%ADD17R,1.600000X1.600000*%
G04 #@! TD*
G04 #@! TA.AperFunction,ComponentPad*
%ADD18R,1.700000X1.700000*%
G04 #@! TD*
G04 #@! TA.AperFunction,ComponentPad*
%ADD19O,1.700000X1.700000*%
G04 #@! TD*
G04 #@! TA.AperFunction,ComponentPad*
%ADD20O,1.600000X1.600000*%
G04 #@! TD*
G04 #@! TA.AperFunction,ComponentPad*
%ADD21R,2.400000X2.400000*%
G04 #@! TD*
G04 #@! TA.AperFunction,ComponentPad*
%ADD22O,2.400000X2.400000*%
G04 #@! TD*
G04 #@! TA.AperFunction,ComponentPad*
%ADD23R,2.600000X2.600000*%
G04 #@! TD*
G04 #@! TA.AperFunction,ComponentPad*
%ADD24C,2.600000*%
G04 #@! TD*
G04 #@! TA.AperFunction,ComponentPad*
%ADD25R,1.600000X2.400000*%
G04 #@! TD*
G04 #@! TA.AperFunction,ComponentPad*
%ADD26O,1.600000X2.400000*%
G04 #@! TD*
G04 #@! TA.AperFunction,ComponentPad*
%ADD27R,1.800000X1.800000*%
G04 #@! TD*
G04 #@! TA.AperFunction,ComponentPad*
%ADD28C,1.800000*%
G04 #@! TD*
G04 #@! TA.AperFunction,ViaPad*
%ADD29C,0.600000*%
G04 #@! TD*
G04 #@! TA.AperFunction,Conductor*
%ADD30C,0.600000*%
G04 #@! TD*
G04 #@! TA.AperFunction,Conductor*
%ADD31C,0.300000*%
G04 #@! TD*
G04 APERTURE END LIST*
D10*
X171228000Y-54356000D03*
D11*
X176308000Y-54356000D03*
D12*
X152729401Y-76454000D03*
D13*
X154729401Y-76454000D03*
D14*
X132620000Y-75664000D03*
D15*
X132620000Y-65504000D03*
D16*
X95028000Y-70878000D03*
X95028000Y-75878000D03*
D17*
X92520000Y-102334000D03*
D16*
X94520000Y-102334000D03*
D18*
X142780000Y-95730000D03*
D19*
X140240000Y-95730000D03*
X137700000Y-95730000D03*
X135160000Y-95730000D03*
X132620000Y-95730000D03*
X112300000Y-95730000D03*
X109760000Y-95730000D03*
X107220000Y-95730000D03*
X104680000Y-95730000D03*
X102140000Y-95730000D03*
X99600000Y-95730000D03*
D10*
X117126000Y-106144000D03*
D11*
X112046000Y-106144000D03*
D17*
X151924000Y-113030000D03*
D20*
X154464000Y-113030000D03*
X157004000Y-113030000D03*
X159544000Y-113030000D03*
X162084000Y-113030000D03*
X164624000Y-113030000D03*
X167164000Y-113030000D03*
X169704000Y-113030000D03*
X172244000Y-113030000D03*
X174784000Y-113030000D03*
X177324000Y-113030000D03*
X179864000Y-113030000D03*
X182404000Y-113030000D03*
X184944000Y-113030000D03*
X184944000Y-105410000D03*
X182404000Y-105410000D03*
X179864000Y-105410000D03*
X177324000Y-105410000D03*
X174784000Y-105410000D03*
X172244000Y-105410000D03*
X169704000Y-105410000D03*
X167164000Y-105410000D03*
X164624000Y-105410000D03*
X162084000Y-105410000D03*
X159544000Y-105410000D03*
X157004000Y-105410000D03*
X154464000Y-105410000D03*
X151924000Y-105410000D03*
D14*
X129064000Y-75664000D03*
D15*
X129064000Y-65504000D03*
D21*
X112554000Y-101826000D03*
D22*
X125254000Y-101826000D03*
D14*
X101886000Y-111224000D03*
D15*
X101886000Y-101064000D03*
D16*
X142526000Y-105850000D03*
X142526000Y-100850000D03*
X92234000Y-70878000D03*
X92234000Y-75878000D03*
D21*
X125254000Y-110462000D03*
D22*
X112554000Y-110462000D03*
D17*
X152432000Y-71628000D03*
D20*
X154972000Y-71628000D03*
X157512000Y-71628000D03*
X160052000Y-71628000D03*
X162592000Y-71628000D03*
X165132000Y-71628000D03*
X167672000Y-71628000D03*
X170212000Y-71628000D03*
X172752000Y-71628000D03*
X175292000Y-71628000D03*
X177832000Y-71628000D03*
X180372000Y-71628000D03*
X182912000Y-71628000D03*
X185452000Y-71628000D03*
X185452000Y-64008000D03*
X182912000Y-64008000D03*
X180372000Y-64008000D03*
X177832000Y-64008000D03*
X175292000Y-64008000D03*
X172752000Y-64008000D03*
X170212000Y-64008000D03*
X167672000Y-64008000D03*
X165132000Y-64008000D03*
X162592000Y-64008000D03*
X160052000Y-64008000D03*
X157512000Y-64008000D03*
X154972000Y-64008000D03*
X152432000Y-64008000D03*
D14*
X135668000Y-101064000D03*
D15*
X135668000Y-111224000D03*
D12*
X172287401Y-118872000D03*
D13*
X174287401Y-118872000D03*
D14*
X109380000Y-65476000D03*
D15*
X109380000Y-75636000D03*
D21*
X112808000Y-66238000D03*
D22*
X125508000Y-66238000D03*
D14*
X108998000Y-101064000D03*
D15*
X108998000Y-111224000D03*
D10*
X192786000Y-120650000D03*
D11*
X192786000Y-115570000D03*
D23*
X196831000Y-61468000D03*
D24*
X196831000Y-56388000D03*
D16*
X92360000Y-106478000D03*
X92360000Y-111478000D03*
D10*
X117380000Y-70584000D03*
D11*
X112300000Y-70584000D03*
D25*
X152178000Y-96266000D03*
D26*
X154718000Y-96266000D03*
X157258000Y-96266000D03*
X159798000Y-96266000D03*
X162338000Y-96266000D03*
X164878000Y-96266000D03*
X167418000Y-96266000D03*
X169958000Y-96266000D03*
X172498000Y-96266000D03*
X175038000Y-96266000D03*
X177578000Y-96266000D03*
X180118000Y-96266000D03*
X182658000Y-96266000D03*
X185198000Y-96266000D03*
X187738000Y-96266000D03*
X190278000Y-96266000D03*
X192818000Y-96266000D03*
X195358000Y-96266000D03*
X197898000Y-96266000D03*
X200438000Y-96266000D03*
X200438000Y-81026000D03*
X197898000Y-81026000D03*
X195358000Y-81026000D03*
X192818000Y-81026000D03*
X190278000Y-81026000D03*
X187738000Y-81026000D03*
X185198000Y-81026000D03*
X182658000Y-81026000D03*
X180118000Y-81026000D03*
X177578000Y-81026000D03*
X175038000Y-81026000D03*
X172498000Y-81026000D03*
X169958000Y-81026000D03*
X167418000Y-81026000D03*
X164878000Y-81026000D03*
X162338000Y-81026000D03*
X159798000Y-81026000D03*
X157258000Y-81026000D03*
X154718000Y-81026000D03*
X152178000Y-81026000D03*
D18*
X95154000Y-81026000D03*
D19*
X97694000Y-81026000D03*
X100234000Y-81026000D03*
X102774000Y-81026000D03*
X105314000Y-81026000D03*
X125634000Y-81026000D03*
X128174000Y-81026000D03*
X130714000Y-81026000D03*
X133254000Y-81026000D03*
X135794000Y-81026000D03*
X138334000Y-81026000D03*
D10*
X120428000Y-106172000D03*
D11*
X125508000Y-106172000D03*
D12*
X172795401Y-76454000D03*
D13*
X174795401Y-76454000D03*
D14*
X132112000Y-111224000D03*
D15*
X132112000Y-101064000D03*
D23*
X84055000Y-72162000D03*
D24*
X84055000Y-77162000D03*
X84055000Y-82162000D03*
X84055000Y-87162000D03*
X84055000Y-92162000D03*
X84055000Y-97162000D03*
X84055000Y-102162000D03*
X84055000Y-107162000D03*
D18*
X200184000Y-103632000D03*
D19*
X200184000Y-106172000D03*
X200184000Y-108712000D03*
D10*
X194564000Y-67056000D03*
D11*
X194564000Y-72136000D03*
D14*
X98076000Y-75636000D03*
D15*
X98076000Y-65476000D03*
D18*
X185198000Y-59436000D03*
D19*
X182658000Y-59436000D03*
X185198000Y-56896000D03*
X182658000Y-56896000D03*
X185198000Y-54356000D03*
X182658000Y-54356000D03*
D18*
X142908000Y-59888000D03*
D19*
X140368000Y-59888000D03*
X137828000Y-59888000D03*
X135288000Y-59888000D03*
X132748000Y-59888000D03*
X112428000Y-59888000D03*
X109888000Y-59888000D03*
X107348000Y-59888000D03*
X104808000Y-59888000D03*
X102268000Y-59888000D03*
X99728000Y-59888000D03*
D10*
X120936000Y-70584000D03*
D11*
X126016000Y-70584000D03*
D14*
X128556000Y-111224000D03*
D15*
X128556000Y-101064000D03*
D14*
X105696000Y-65476000D03*
D15*
X105696000Y-75636000D03*
D14*
X101886000Y-75636000D03*
D15*
X101886000Y-65476000D03*
D27*
X199136000Y-68072000D03*
D28*
X199136000Y-70612000D03*
D18*
X95408000Y-116840000D03*
D19*
X97948000Y-116840000D03*
X100488000Y-116840000D03*
X103028000Y-116840000D03*
X105568000Y-116840000D03*
X125888000Y-116840000D03*
X128428000Y-116840000D03*
X130968000Y-116840000D03*
X133508000Y-116840000D03*
X136048000Y-116840000D03*
X138588000Y-116840000D03*
D10*
X171228000Y-59436000D03*
D11*
X176308000Y-59436000D03*
D14*
X139224000Y-101064000D03*
D15*
X139224000Y-111224000D03*
D14*
X98330000Y-111224000D03*
D15*
X98330000Y-101064000D03*
D10*
X171228000Y-56896000D03*
D11*
X176308000Y-56896000D03*
D10*
X197866000Y-120650000D03*
D11*
X197866000Y-115570000D03*
D14*
X105442000Y-101064000D03*
D15*
X105442000Y-111224000D03*
D17*
X145574000Y-74140000D03*
D16*
X143574000Y-74140000D03*
X142908000Y-70076000D03*
X142908000Y-65076000D03*
X145828000Y-70076000D03*
X145828000Y-65076000D03*
D21*
X125508000Y-74902000D03*
D22*
X112808000Y-74902000D03*
D14*
X136176000Y-65504000D03*
D15*
X136176000Y-75664000D03*
D17*
X144812000Y-110208000D03*
D16*
X142812000Y-110208000D03*
D14*
X139732000Y-65504000D03*
D15*
X139732000Y-75664000D03*
D17*
X92520000Y-66520000D03*
D16*
X94520000Y-66520000D03*
D10*
X195326000Y-120650000D03*
D11*
X195326000Y-115570000D03*
D18*
X195871000Y-108697000D03*
D19*
X193331000Y-108697000D03*
X195871000Y-106157000D03*
X193331000Y-106157000D03*
X195871000Y-103617000D03*
X193331000Y-103617000D03*
D16*
X145320000Y-105850000D03*
X145320000Y-100850000D03*
X95028000Y-106478000D03*
X95028000Y-111478000D03*
D29*
X151638000Y-78486000D03*
X146050000Y-78486000D03*
X169672000Y-90932000D03*
X171978000Y-87884000D03*
X98300000Y-108206000D03*
X95758000Y-108204000D03*
X145288000Y-85062736D03*
X145542000Y-86106000D03*
X111506000Y-81534000D03*
X173736000Y-83058000D03*
X173990000Y-84328000D03*
X176530000Y-84328000D03*
X112268000Y-82550000D03*
X150400000Y-104648000D03*
X188976000Y-59944000D03*
X153702000Y-118872000D03*
X182880000Y-99568000D03*
X94774000Y-114554000D03*
X114046000Y-84582000D03*
X123476000Y-118618000D03*
X124238000Y-117856000D03*
X113316000Y-83566000D03*
X149500000Y-107950000D03*
X148876000Y-108712000D03*
X148114000Y-109474000D03*
X122714000Y-119380000D03*
X115062000Y-85598000D03*
X162084000Y-73152000D03*
X164961000Y-93218000D03*
X162052000Y-66040000D03*
X159512000Y-75946000D03*
X170323000Y-93107000D03*
X194108000Y-87122000D03*
X159258000Y-122682000D03*
X153670000Y-122428000D03*
X156464000Y-122555000D03*
X155194000Y-91186000D03*
X157728000Y-90684000D03*
X168148000Y-90170000D03*
D30*
X152654000Y-76529401D02*
X152729401Y-76454000D01*
X152654000Y-80550000D02*
X152654000Y-76529401D01*
X152178000Y-81026000D02*
X152654000Y-80550000D01*
X146050000Y-78486000D02*
X151638000Y-78486000D01*
D31*
X109760000Y-72644000D02*
X84537000Y-72644000D01*
X84537000Y-72644000D02*
X84055000Y-72162000D01*
X111820000Y-70584000D02*
X109760000Y-72644000D01*
X112300000Y-70584000D02*
X111820000Y-70584000D01*
X86614000Y-108172000D02*
X86614000Y-104721000D01*
X86614000Y-104721000D02*
X84055000Y-102162000D01*
X92996000Y-114554000D02*
X86614000Y-108172000D01*
X94774000Y-114554000D02*
X92996000Y-114554000D01*
X87884000Y-100991000D02*
X84055000Y-97162000D01*
X87884000Y-106902000D02*
X87884000Y-100991000D01*
X91210000Y-110228000D02*
X87884000Y-106902000D01*
X97334000Y-110228000D02*
X91210000Y-110228000D01*
X98330000Y-111224000D02*
X97334000Y-110228000D01*
X89154000Y-97261000D02*
X84055000Y-92162000D01*
X89154000Y-106140000D02*
X89154000Y-97261000D01*
X91980000Y-108966000D02*
X89154000Y-106140000D01*
X109224000Y-108966000D02*
X91980000Y-108966000D01*
X112046000Y-106144000D02*
X109224000Y-108966000D01*
X124206000Y-98806000D02*
X117126000Y-105886000D01*
X117126000Y-105886000D02*
X117126000Y-106144000D01*
X139704000Y-98806000D02*
X124206000Y-98806000D01*
X142780000Y-95730000D02*
X139704000Y-98806000D01*
X113196000Y-104994000D02*
X112046000Y-106144000D01*
X116240000Y-104994000D02*
X113196000Y-104994000D01*
X138434000Y-97536000D02*
X123698000Y-97536000D01*
X123698000Y-97536000D02*
X116240000Y-104994000D01*
X140240000Y-95730000D02*
X138434000Y-97536000D01*
X98556000Y-107950000D02*
X98300000Y-108206000D01*
X111252000Y-104140000D02*
X107442000Y-107950000D01*
X115570000Y-104140000D02*
X111252000Y-104140000D01*
X127000000Y-92710000D02*
X115570000Y-104140000D01*
X107442000Y-107950000D02*
X98556000Y-107950000D01*
X133350000Y-92710000D02*
X127000000Y-92710000D01*
X171724000Y-88138000D02*
X137922000Y-88138000D01*
X137922000Y-88138000D02*
X133350000Y-92710000D01*
X171978000Y-87884000D02*
X171724000Y-88138000D01*
X164116000Y-116078000D02*
X167164000Y-113030000D01*
X124480000Y-119622000D02*
X150380000Y-119622000D01*
X123476000Y-118618000D02*
X124480000Y-119622000D01*
X150380000Y-119622000D02*
X153924000Y-116078000D01*
X153924000Y-116078000D02*
X164116000Y-116078000D01*
X162592000Y-115062000D02*
X164624000Y-113030000D01*
X153416000Y-115062000D02*
X162592000Y-115062000D01*
X125000000Y-118618000D02*
X149860000Y-118618000D01*
X149860000Y-118618000D02*
X153416000Y-115062000D01*
X124238000Y-117856000D02*
X125000000Y-118618000D01*
X123444000Y-81534000D02*
X111506000Y-81534000D01*
X173736000Y-83058000D02*
X124968000Y-83058000D01*
X124968000Y-83058000D02*
X123444000Y-81534000D01*
X195326000Y-86106000D02*
X197898000Y-88678000D01*
X145542000Y-86106000D02*
X195326000Y-86106000D01*
X197898000Y-88678000D02*
X197898000Y-96266000D01*
X175038000Y-84550000D02*
X175038000Y-81026000D01*
X145288000Y-85062736D02*
X145315264Y-85090000D01*
X145315264Y-85090000D02*
X174498000Y-85090000D01*
X174498000Y-85090000D02*
X175038000Y-84550000D01*
X124460000Y-84074000D02*
X173736000Y-84074000D01*
X173736000Y-84074000D02*
X173990000Y-84328000D01*
X122936000Y-82550000D02*
X124460000Y-84074000D01*
X112268000Y-82550000D02*
X122936000Y-82550000D01*
X192818000Y-87916000D02*
X192818000Y-96266000D01*
X192024000Y-87122000D02*
X192818000Y-87916000D01*
X133604000Y-90424000D02*
X136906000Y-87122000D01*
X120142000Y-90424000D02*
X133604000Y-90424000D01*
X110548000Y-100018000D02*
X120142000Y-90424000D01*
X110548000Y-102614000D02*
X110548000Y-100018000D01*
X97028000Y-106934000D02*
X106228000Y-106934000D01*
X95758000Y-108204000D02*
X97028000Y-106934000D01*
X136906000Y-87122000D02*
X192024000Y-87122000D01*
X106228000Y-106934000D02*
X110548000Y-102614000D01*
X139196000Y-89154000D02*
X132620000Y-95730000D01*
X167132000Y-89154000D02*
X139196000Y-89154000D01*
X168148000Y-90170000D02*
X167132000Y-89154000D01*
X140720000Y-90170000D02*
X135160000Y-95730000D01*
X157728000Y-90684000D02*
X157214000Y-90170000D01*
X157214000Y-90170000D02*
X140720000Y-90170000D01*
X155194000Y-91186000D02*
X142244000Y-91186000D01*
X142244000Y-91186000D02*
X137700000Y-95730000D01*
X151174000Y-92202000D02*
X142526000Y-100850000D01*
X168402000Y-92202000D02*
X151174000Y-92202000D01*
X169672000Y-90932000D02*
X168402000Y-92202000D01*
X157766000Y-93218000D02*
X154718000Y-96266000D01*
X164961000Y-93218000D02*
X157766000Y-93218000D01*
X159290000Y-94234000D02*
X157258000Y-96266000D01*
X169196000Y-94234000D02*
X159290000Y-94234000D01*
X170323000Y-93107000D02*
X169196000Y-94234000D01*
X145320000Y-100850000D02*
X183154000Y-100850000D01*
X183154000Y-100850000D02*
X187738000Y-96266000D01*
X176530000Y-84328000D02*
X197612000Y-84328000D01*
X197612000Y-84328000D02*
X200438000Y-81502000D01*
X200438000Y-81502000D02*
X200438000Y-81026000D01*
X84055000Y-107645000D02*
X93250000Y-116840000D01*
X123448000Y-106172000D02*
X120428000Y-106172000D01*
X135668000Y-101064000D02*
X139224000Y-101064000D01*
X128556000Y-101064000D02*
X132112000Y-101064000D01*
X128556000Y-101064000D02*
X123448000Y-106172000D01*
X95408000Y-116840000D02*
X98456000Y-113792000D01*
X93250000Y-116840000D02*
X95408000Y-116840000D01*
X112808000Y-113792000D02*
X120428000Y-106172000D01*
X84055000Y-107162000D02*
X84055000Y-107645000D01*
X98456000Y-113792000D02*
X112808000Y-113792000D01*
X132112000Y-101064000D02*
X135668000Y-101064000D01*
D30*
X175260000Y-75989401D02*
X174795401Y-76454000D01*
X175292000Y-71628000D02*
X175260000Y-71660000D01*
X175260000Y-71660000D02*
X175260000Y-75989401D01*
D31*
X105442000Y-111224000D02*
X101886000Y-111224000D01*
X108998000Y-111224000D02*
X105442000Y-111224000D01*
X117126000Y-106144000D02*
X114078000Y-106144000D01*
X114078000Y-106144000D02*
X108998000Y-111224000D01*
X101886000Y-111224000D02*
X98330000Y-111224000D01*
X123984000Y-70584000D02*
X120936000Y-70584000D01*
X85191000Y-81026000D02*
X84055000Y-82162000D01*
X129064000Y-65504000D02*
X123984000Y-70584000D01*
X113796000Y-77724000D02*
X98456000Y-77724000D01*
X95154000Y-81026000D02*
X85191000Y-81026000D01*
X129064000Y-65504000D02*
X139732000Y-65504000D01*
X98456000Y-77724000D02*
X95154000Y-81026000D01*
X120936000Y-70584000D02*
X113796000Y-77724000D01*
X125226000Y-62738000D02*
X140058000Y-62738000D01*
X84055000Y-77162000D02*
X84617000Y-77724000D01*
X84617000Y-77724000D02*
X95988000Y-77724000D01*
X117380000Y-70584000D02*
X125226000Y-62738000D01*
X140058000Y-62738000D02*
X142908000Y-59888000D01*
X114432000Y-70584000D02*
X117380000Y-70584000D01*
X109380000Y-75636000D02*
X109816000Y-75636000D01*
X95988000Y-77724000D02*
X98076000Y-75636000D01*
X109380000Y-75636000D02*
X114432000Y-70584000D01*
X101886000Y-75636000D02*
X109380000Y-75636000D01*
X98076000Y-75636000D02*
X101886000Y-75636000D01*
X112046000Y-65476000D02*
X112808000Y-66238000D01*
D30*
X148622000Y-106426000D02*
X148594000Y-106426000D01*
X169196000Y-56388000D02*
X171228000Y-54356000D01*
X94742000Y-61976000D02*
X92520000Y-64198000D01*
X145574000Y-75692000D02*
X145574000Y-74140000D01*
X100180000Y-61976000D02*
X94742000Y-61976000D01*
X192786000Y-120650000D02*
X195326000Y-120650000D01*
X173260000Y-52324000D02*
X171228000Y-54356000D01*
X92520000Y-64198000D02*
X92520000Y-66520000D01*
X196831000Y-61468000D02*
X190500000Y-61468000D01*
X152729401Y-76243401D02*
X150654000Y-74168000D01*
X138842000Y-114046000D02*
X136048000Y-116840000D01*
X174022000Y-120650000D02*
X192786000Y-120650000D01*
X102268000Y-59888000D02*
X105768000Y-56388000D01*
X100334000Y-97536000D02*
X102140000Y-95730000D01*
X152729401Y-76454000D02*
X152729401Y-76243401D01*
X186690000Y-52324000D02*
X173260000Y-52324000D01*
X149352000Y-72866000D02*
X150654000Y-74168000D01*
X188976000Y-54610000D02*
X186690000Y-52324000D01*
X149352000Y-57912000D02*
X149352000Y-72866000D01*
X140974000Y-114046000D02*
X138842000Y-114046000D01*
X172287401Y-118872000D02*
X172287401Y-118915401D01*
X145574000Y-74140000D02*
X146848000Y-72866000D01*
X172752000Y-74168000D02*
X155015401Y-74168000D01*
X135794000Y-81026000D02*
X138334000Y-78486000D01*
X188976000Y-59944000D02*
X188976000Y-54610000D01*
X166402000Y-118872000D02*
X172244000Y-118872000D01*
X102268000Y-59888000D02*
X100180000Y-61976000D01*
X171228000Y-54356000D02*
X171228000Y-56896000D01*
X150876000Y-56388000D02*
X149352000Y-57912000D01*
X190500000Y-61468000D02*
X188976000Y-59944000D01*
X149352000Y-56388000D02*
X169196000Y-56388000D01*
X142780000Y-78486000D02*
X145574000Y-75692000D01*
X105768000Y-56388000D02*
X149352000Y-56388000D01*
X166402000Y-118872000D02*
X172287401Y-118872000D01*
X150400000Y-104648000D02*
X148622000Y-106426000D01*
X92520000Y-101314000D02*
X96298000Y-97536000D01*
X172287401Y-118915401D02*
X174022000Y-120650000D01*
X172752000Y-71628000D02*
X172752000Y-74168000D01*
X172752000Y-76156599D02*
X172752000Y-74168000D01*
X92520000Y-102334000D02*
X92520000Y-101314000D01*
X195326000Y-120650000D02*
X197866000Y-120650000D01*
X96298000Y-97536000D02*
X100334000Y-97536000D01*
X148594000Y-106426000D02*
X144812000Y-110208000D01*
X138334000Y-78486000D02*
X142780000Y-78486000D01*
X153702000Y-118872000D02*
X166402000Y-118872000D01*
X155015401Y-74168000D02*
X152729401Y-76454000D01*
X173049401Y-76454000D02*
X172752000Y-76156599D01*
X146848000Y-72866000D02*
X149352000Y-72866000D01*
X144812000Y-110208000D02*
X140974000Y-114046000D01*
X171228000Y-56896000D02*
X171228000Y-59436000D01*
X172244000Y-118872000D02*
X172244000Y-113030000D01*
D31*
X183928000Y-111506000D02*
X182404000Y-113030000D01*
X198374000Y-110608528D02*
X197476528Y-111506000D01*
X200184000Y-106172000D02*
X198374000Y-107982000D01*
X197476528Y-111506000D02*
X183928000Y-111506000D01*
X198374000Y-107982000D02*
X198374000Y-110608528D01*
X197612000Y-109982000D02*
X197612000Y-106204000D01*
X197612000Y-106204000D02*
X200184000Y-103632000D01*
X182404000Y-110490000D02*
X197104000Y-110490000D01*
X197104000Y-110490000D02*
X197612000Y-109982000D01*
X179864000Y-113030000D02*
X182404000Y-110490000D01*
X182880000Y-99568000D02*
X155480000Y-99568000D01*
X155480000Y-99568000D02*
X152178000Y-96266000D01*
X97948000Y-116840000D02*
X99980000Y-114808000D01*
X116872000Y-114808000D02*
X125508000Y-106172000D01*
X99980000Y-114808000D02*
X116872000Y-114808000D01*
X97694000Y-81026000D02*
X91558000Y-87162000D01*
X91558000Y-87162000D02*
X84055000Y-87162000D01*
X99726000Y-78994000D02*
X117606000Y-78994000D01*
X117606000Y-78994000D02*
X126016000Y-70584000D01*
X97694000Y-81026000D02*
X99726000Y-78994000D01*
X138534000Y-61722000D02*
X140368000Y-59888000D01*
X121162000Y-61722000D02*
X138534000Y-61722000D01*
X112300000Y-70584000D02*
X121162000Y-61722000D01*
X114046000Y-84582000D02*
X106330000Y-84582000D01*
X106330000Y-84582000D02*
X102774000Y-81026000D01*
X107854000Y-83566000D02*
X105314000Y-81026000D01*
X113316000Y-83566000D02*
X107854000Y-83566000D01*
X150262000Y-108712000D02*
X157766000Y-108712000D01*
X157766000Y-108712000D02*
X162084000Y-113030000D01*
X149500000Y-107950000D02*
X150262000Y-108712000D01*
X156496000Y-109982000D02*
X159544000Y-113030000D01*
X148876000Y-108712000D02*
X150146000Y-109982000D01*
X150146000Y-109982000D02*
X156496000Y-109982000D01*
X149892000Y-111252000D02*
X155226000Y-111252000D01*
X148114000Y-109474000D02*
X149892000Y-111252000D01*
X155226000Y-111252000D02*
X157004000Y-113030000D01*
X115062000Y-85598000D02*
X104806000Y-85598000D01*
X122714000Y-119380000D02*
X123984000Y-120650000D01*
X123984000Y-120650000D02*
X150863339Y-120650000D01*
X154419339Y-117094000D02*
X165640000Y-117094000D01*
X104806000Y-85598000D02*
X100234000Y-81026000D01*
X165640000Y-117094000D02*
X169704000Y-113030000D01*
X150863339Y-120650000D02*
X154419339Y-117094000D01*
X188214000Y-76422000D02*
X192818000Y-81026000D01*
X162592000Y-71628000D02*
X165386000Y-68834000D01*
X187071000Y-68834000D02*
X188214000Y-69977000D01*
X165386000Y-68834000D02*
X187071000Y-68834000D01*
X188214000Y-69977000D02*
X188214000Y-76422000D01*
X161322000Y-67818000D02*
X187960000Y-67818000D01*
X189262000Y-74930000D02*
X195358000Y-81026000D01*
X157512000Y-71628000D02*
X161322000Y-67818000D01*
X187960000Y-67818000D02*
X189262000Y-69120000D01*
X189262000Y-69120000D02*
X189262000Y-74930000D01*
X152432000Y-71628000D02*
X153956000Y-73152000D01*
X153956000Y-73152000D02*
X162084000Y-73152000D01*
X187198000Y-70612000D02*
X187198000Y-77946000D01*
X165132000Y-71628000D02*
X166910000Y-69850000D01*
X166910000Y-69850000D02*
X186436000Y-69850000D01*
X187198000Y-77946000D02*
X190278000Y-81026000D01*
X186436000Y-69850000D02*
X187198000Y-70612000D01*
X188722000Y-66802000D02*
X190500000Y-68580000D01*
X190500000Y-73628000D02*
X197898000Y-81026000D01*
X190500000Y-68580000D02*
X190500000Y-73628000D01*
X159798000Y-66802000D02*
X188722000Y-66802000D01*
X154972000Y-71628000D02*
X159798000Y-66802000D01*
X159512000Y-75946000D02*
X159512000Y-78772000D01*
X165640000Y-66040000D02*
X167672000Y-64008000D01*
X162052000Y-66040000D02*
X165640000Y-66040000D01*
X159512000Y-78772000D02*
X157258000Y-81026000D01*
X195358000Y-88372000D02*
X195358000Y-96266000D01*
X194108000Y-87122000D02*
X195358000Y-88372000D01*
X159258000Y-122682000D02*
X157480000Y-124460000D01*
X157480000Y-124460000D02*
X108108000Y-124460000D01*
X108108000Y-124460000D02*
X100488000Y-116840000D01*
X111156000Y-122428000D02*
X105568000Y-116840000D01*
X153670000Y-122428000D02*
X111156000Y-122428000D01*
X109632000Y-123444000D02*
X103028000Y-116840000D01*
X155575000Y-123444000D02*
X109632000Y-123444000D01*
X156464000Y-122555000D02*
X155575000Y-123444000D01*
X182658000Y-59436000D02*
X182658000Y-59944000D01*
X182658000Y-59436000D02*
X176308000Y-59436000D01*
X191334000Y-104160000D02*
X183654000Y-104160000D01*
X193331000Y-106157000D02*
X191334000Y-104160000D01*
X183654000Y-104160000D02*
X182404000Y-105410000D01*
X193331000Y-103617000D02*
X192838000Y-103124000D01*
X182150000Y-103124000D02*
X179864000Y-105410000D01*
X192838000Y-103124000D02*
X182150000Y-103124000D01*
X193331000Y-108697000D02*
X193311000Y-108697000D01*
X185198000Y-105156000D02*
X184944000Y-105410000D01*
X193311000Y-108697000D02*
X189770000Y-105156000D01*
X189770000Y-105156000D02*
X185198000Y-105156000D01*
X182658000Y-56896000D02*
X176308000Y-56896000D01*
X182658000Y-54356000D02*
X176308000Y-54356000D01*
X140934000Y-107442000D02*
X129238000Y-107442000D01*
X129238000Y-107442000D02*
X127006000Y-109674000D01*
X142526000Y-105850000D02*
X140934000Y-107442000D01*
X127006000Y-115722000D02*
X125888000Y-116840000D01*
X127006000Y-109674000D02*
X127006000Y-115722000D01*
X130106000Y-115162000D02*
X130106000Y-110210000D01*
X142212000Y-108958000D02*
X145320000Y-105850000D01*
X130106000Y-110210000D02*
X131358000Y-108958000D01*
X128428000Y-116840000D02*
X130106000Y-115162000D01*
X131358000Y-108958000D02*
X142212000Y-108958000D01*
X95334000Y-106172000D02*
X104648000Y-106172000D01*
X108930000Y-98044000D02*
X110619000Y-98044000D01*
X110619000Y-98044000D02*
X112300000Y-96363000D01*
X95028000Y-106478000D02*
X95334000Y-106172000D01*
X104648000Y-106172000D02*
X107188000Y-103632000D01*
X107188000Y-99786000D02*
X108930000Y-98044000D01*
X107188000Y-103632000D02*
X107188000Y-99786000D01*
X112042000Y-95730000D02*
X112300000Y-95730000D01*
X112300000Y-96363000D02*
X112300000Y-95730000D01*
X92360000Y-106478000D02*
X93936000Y-104902000D01*
X93936000Y-104902000D02*
X100588000Y-104902000D01*
X106430000Y-99060000D02*
X109760000Y-95730000D01*
X103436000Y-100134000D02*
X104510000Y-99060000D01*
X103436000Y-102054000D02*
X103436000Y-100134000D01*
X104510000Y-99060000D02*
X106430000Y-99060000D01*
X100588000Y-104902000D02*
X103436000Y-102054000D01*
X140086000Y-72898000D02*
X128730000Y-72898000D01*
X127158000Y-79376000D02*
X125634000Y-80900000D01*
X127158000Y-74470000D02*
X127158000Y-79376000D01*
X128730000Y-72898000D02*
X127158000Y-74470000D01*
X125634000Y-80900000D02*
X125634000Y-81026000D01*
X142908000Y-70076000D02*
X140086000Y-72898000D01*
X128556000Y-81026000D02*
X128174000Y-81026000D01*
X145588000Y-70076000D02*
X142004000Y-73660000D01*
X142004000Y-73660000D02*
X131731000Y-73660000D01*
X130842000Y-78740000D02*
X128556000Y-81026000D01*
X131731000Y-73660000D02*
X130842000Y-74549000D01*
X130842000Y-74549000D02*
X130842000Y-78740000D01*
X145828000Y-70076000D02*
X145588000Y-70076000D01*
X111158000Y-69436000D02*
X111158000Y-61158000D01*
X95294000Y-70612000D02*
X109982000Y-70612000D01*
X111158000Y-61158000D02*
X112428000Y-59888000D01*
X109982000Y-70612000D02*
X111158000Y-69436000D01*
X95028000Y-70878000D02*
X95294000Y-70612000D01*
X97028000Y-63246000D02*
X106530000Y-63246000D01*
X92234000Y-70878000D02*
X96012000Y-67100000D01*
X96012000Y-64262000D02*
X97028000Y-63246000D01*
X106530000Y-63246000D02*
X109888000Y-59888000D01*
X96012000Y-67100000D02*
X96012000Y-64262000D01*
M02*
