M48
; DRILL file {KiCad 8.0.5} date 2024-10-14T22:10:25+0200
; FORMAT={-:-/ absolute / metric / decimal}
; #@! TF.CreationDate,2024-10-14T22:10:25+02:00
; #@! TF.GenerationSoftware,Kicad,Pcbnew,8.0.5
; #@! TF.FileFunction,Plated,1,2,PTH
FMAT,2
METRIC
; #@! TA.AperFunction,Plated,PTH,ViaDrill
T1C0.300
; #@! TA.AperFunction,Plated,PTH,ComponentDrill
T2C0.600
; #@! TA.AperFunction,Plated,PTH,ComponentDrill
T3C0.700
; #@! TA.AperFunction,Plated,PTH,ComponentDrill
T4C0.800
; #@! TA.AperFunction,Plated,PTH,ComponentDrill
T5C0.900
; #@! TA.AperFunction,Plated,PTH,ComponentDrill
T6C1.000
; #@! TA.AperFunction,Plated,PTH,ComponentDrill
T7C1.100
; #@! TA.AperFunction,Plated,PTH,ComponentDrill
T8C1.200
; #@! TA.AperFunction,Plated,PTH,ComponentDrill
T9C1.300
%
G90
G05
T1
X94.774Y-114.554
X95.758Y-108.204
X98.3Y-108.206
X111.506Y-81.534
X112.268Y-82.55
X113.316Y-83.566
X114.046Y-84.582
X115.062Y-85.598
X122.714Y-119.38
X123.476Y-118.618
X124.238Y-117.856
X145.288Y-85.063
X145.542Y-86.106
X146.05Y-78.486
X148.114Y-109.474
X148.876Y-108.712
X149.5Y-107.95
X150.4Y-104.648
X151.638Y-78.486
X153.67Y-122.428
X153.702Y-118.872
X155.194Y-91.186
X156.464Y-122.555
X157.728Y-90.684
X159.258Y-122.682
X159.512Y-75.946
X162.052Y-66.04
X162.084Y-73.152
X164.961Y-93.218
X168.148Y-90.17
X169.672Y-90.932
X170.323Y-93.107
X171.978Y-87.884
X173.736Y-83.058
X173.99Y-84.328
X176.53Y-84.328
X182.88Y-99.568
X188.976Y-59.944
X194.108Y-87.122
T2
X152.729Y-76.454
X154.729Y-76.454
X172.287Y-118.872
X172.795Y-76.454
X174.287Y-118.872
X174.795Y-76.454
T3
X112.046Y-106.144
X112.3Y-70.584
X117.126Y-106.144
X117.38Y-70.584
X120.428Y-106.172
X120.936Y-70.584
X125.508Y-106.172
X126.016Y-70.584
X171.228Y-54.356
X171.228Y-56.896
X171.228Y-59.436
X176.308Y-54.356
X176.308Y-56.896
X176.308Y-59.436
X192.786Y-115.57
X192.786Y-120.65
X194.564Y-67.056
X194.564Y-72.136
X195.326Y-115.57
X195.326Y-120.65
X197.866Y-115.57
X197.866Y-120.65
T4
X92.234Y-70.878
X92.234Y-75.878
X92.36Y-106.478
X92.36Y-111.478
X92.52Y-66.52
X92.52Y-102.334
X94.52Y-66.52
X94.52Y-102.334
X95.028Y-70.878
X95.028Y-75.878
X95.028Y-106.478
X95.028Y-111.478
X142.526Y-100.85
X142.526Y-105.85
X142.812Y-110.208
X142.908Y-65.076
X142.908Y-70.076
X143.574Y-74.14
X144.812Y-110.208
X145.32Y-100.85
X145.32Y-105.85
X145.574Y-74.14
X145.828Y-65.076
X145.828Y-70.076
X151.924Y-105.41
X151.924Y-113.03
X152.178Y-81.026
X152.178Y-96.266
X152.432Y-64.008
X152.432Y-71.628
X154.464Y-105.41
X154.464Y-113.03
X154.718Y-81.026
X154.718Y-96.266
X154.972Y-64.008
X154.972Y-71.628
X157.004Y-105.41
X157.004Y-113.03
X157.258Y-81.026
X157.258Y-96.266
X157.512Y-64.008
X157.512Y-71.628
X159.544Y-105.41
X159.544Y-113.03
X159.798Y-81.026
X159.798Y-96.266
X160.052Y-64.008
X160.052Y-71.628
X162.084Y-105.41
X162.084Y-113.03
X162.338Y-81.026
X162.338Y-96.266
X162.592Y-64.008
X162.592Y-71.628
X164.624Y-105.41
X164.624Y-113.03
X164.878Y-81.026
X164.878Y-96.266
X165.132Y-64.008
X165.132Y-71.628
X167.164Y-105.41
X167.164Y-113.03
X167.418Y-81.026
X167.418Y-96.266
X167.672Y-64.008
X167.672Y-71.628
X169.704Y-105.41
X169.704Y-113.03
X169.958Y-81.026
X169.958Y-96.266
X170.212Y-64.008
X170.212Y-71.628
X172.244Y-105.41
X172.244Y-113.03
X172.498Y-81.026
X172.498Y-96.266
X172.752Y-64.008
X172.752Y-71.628
X174.784Y-105.41
X174.784Y-113.03
X175.038Y-81.026
X175.038Y-96.266
X175.292Y-64.008
X175.292Y-71.628
X177.324Y-105.41
X177.324Y-113.03
X177.578Y-81.026
X177.578Y-96.266
X177.832Y-64.008
X177.832Y-71.628
X179.864Y-105.41
X179.864Y-113.03
X180.118Y-81.026
X180.118Y-96.266
X180.372Y-64.008
X180.372Y-71.628
X182.404Y-105.41
X182.404Y-113.03
X182.658Y-81.026
X182.658Y-96.266
X182.912Y-64.008
X182.912Y-71.628
X184.944Y-105.41
X184.944Y-113.03
X185.198Y-81.026
X185.198Y-96.266
X185.452Y-64.008
X185.452Y-71.628
X187.738Y-81.026
X187.738Y-96.266
X190.278Y-81.026
X190.278Y-96.266
X192.818Y-81.026
X192.818Y-96.266
X195.358Y-81.026
X195.358Y-96.266
X197.898Y-81.026
X197.898Y-96.266
X200.438Y-81.026
X200.438Y-96.266
T5
X199.136Y-68.072
X199.136Y-70.612
T6
X95.154Y-81.026
X95.408Y-116.84
X97.694Y-81.026
X97.948Y-116.84
X99.6Y-95.73
X99.728Y-59.888
X100.234Y-81.026
X100.488Y-116.84
X102.14Y-95.73
X102.268Y-59.888
X102.774Y-81.026
X103.028Y-116.84
X104.68Y-95.73
X104.808Y-59.888
X105.314Y-81.026
X105.568Y-116.84
X107.22Y-95.73
X107.348Y-59.888
X109.76Y-95.73
X109.888Y-59.888
X112.3Y-95.73
X112.428Y-59.888
X125.634Y-81.026
X125.888Y-116.84
X128.174Y-81.026
X128.428Y-116.84
X130.714Y-81.026
X130.968Y-116.84
X132.62Y-95.73
X132.748Y-59.888
X133.254Y-81.026
X133.508Y-116.84
X135.16Y-95.73
X135.288Y-59.888
X135.794Y-81.026
X136.048Y-116.84
X137.7Y-95.73
X137.828Y-59.888
X138.334Y-81.026
X138.588Y-116.84
X140.24Y-95.73
X140.368Y-59.888
X142.78Y-95.73
X142.908Y-59.888
X182.658Y-54.356
X182.658Y-56.896
X182.658Y-59.436
X185.198Y-54.356
X185.198Y-56.896
X185.198Y-59.436
X193.331Y-103.617
X193.331Y-106.157
X193.331Y-108.697
X195.871Y-103.617
X195.871Y-106.157
X195.871Y-108.697
X200.184Y-103.632
X200.184Y-106.172
X200.184Y-108.712
T7
X98.076Y-65.476
X98.076Y-75.636
X98.33Y-101.064
X98.33Y-111.224
X101.886Y-65.476
X101.886Y-75.636
X101.886Y-101.064
X101.886Y-111.224
X105.442Y-101.064
X105.442Y-111.224
X105.696Y-65.476
X105.696Y-75.636
X108.998Y-101.064
X108.998Y-111.224
X109.38Y-65.476
X109.38Y-75.636
X128.556Y-101.064
X128.556Y-111.224
X129.064Y-65.504
X129.064Y-75.664
X132.112Y-101.064
X132.112Y-111.224
X132.62Y-65.504
X132.62Y-75.664
X135.668Y-101.064
X135.668Y-111.224
X136.176Y-65.504
X136.176Y-75.664
X139.224Y-101.064
X139.224Y-111.224
X139.732Y-65.504
X139.732Y-75.664
T8
X112.554Y-101.826
X112.554Y-110.462
X112.808Y-66.238
X112.808Y-74.902
X125.254Y-101.826
X125.254Y-110.462
X125.508Y-66.238
X125.508Y-74.902
T9
X84.055Y-72.162
X84.055Y-77.162
X84.055Y-82.162
X84.055Y-87.162
X84.055Y-92.162
X84.055Y-97.162
X84.055Y-102.162
X84.055Y-107.162
X196.831Y-56.388
X196.831Y-61.468
M30
