G04 #@! TF.GenerationSoftware,KiCad,Pcbnew,8.0.5*
G04 #@! TF.CreationDate,2024-10-14T22:09:33+02:00*
G04 #@! TF.ProjectId,Exchange_ProofOfConcept,45786368-616e-4676-955f-50726f6f664f,1.0*
G04 #@! TF.SameCoordinates,Original*
G04 #@! TF.FileFunction,Soldermask,Bot*
G04 #@! TF.FilePolarity,Negative*
%FSLAX46Y46*%
G04 Gerber Fmt 4.6, Leading zero omitted, Abs format (unit mm)*
G04 Created by KiCad (PCBNEW 8.0.5) date 2024-10-14 22:09:33*
%MOMM*%
%LPD*%
G01*
G04 APERTURE LIST*
%ADD10C,1.400000*%
%ADD11O,1.400000X1.400000*%
%ADD12R,1.200000X1.200000*%
%ADD13C,1.200000*%
%ADD14R,2.200000X2.200000*%
%ADD15O,2.200000X2.200000*%
%ADD16C,1.600000*%
%ADD17R,1.600000X1.600000*%
%ADD18R,1.700000X1.700000*%
%ADD19O,1.700000X1.700000*%
%ADD20O,1.600000X1.600000*%
%ADD21R,2.400000X2.400000*%
%ADD22O,2.400000X2.400000*%
%ADD23R,2.600000X2.600000*%
%ADD24C,2.600000*%
%ADD25R,1.600000X2.400000*%
%ADD26O,1.600000X2.400000*%
%ADD27R,1.800000X1.800000*%
%ADD28C,1.800000*%
G04 APERTURE END LIST*
D10*
X171228000Y-54356000D03*
D11*
X176308000Y-54356000D03*
D12*
X152729401Y-76454000D03*
D13*
X154729401Y-76454000D03*
D14*
X132620000Y-75664000D03*
D15*
X132620000Y-65504000D03*
D16*
X95028000Y-70878000D03*
X95028000Y-75878000D03*
D17*
X92520000Y-102334000D03*
D16*
X94520000Y-102334000D03*
D18*
X142780000Y-95730000D03*
D19*
X140240000Y-95730000D03*
X137700000Y-95730000D03*
X135160000Y-95730000D03*
X132620000Y-95730000D03*
X112300000Y-95730000D03*
X109760000Y-95730000D03*
X107220000Y-95730000D03*
X104680000Y-95730000D03*
X102140000Y-95730000D03*
X99600000Y-95730000D03*
D10*
X117126000Y-106144000D03*
D11*
X112046000Y-106144000D03*
D17*
X151924000Y-113030000D03*
D20*
X154464000Y-113030000D03*
X157004000Y-113030000D03*
X159544000Y-113030000D03*
X162084000Y-113030000D03*
X164624000Y-113030000D03*
X167164000Y-113030000D03*
X169704000Y-113030000D03*
X172244000Y-113030000D03*
X174784000Y-113030000D03*
X177324000Y-113030000D03*
X179864000Y-113030000D03*
X182404000Y-113030000D03*
X184944000Y-113030000D03*
X184944000Y-105410000D03*
X182404000Y-105410000D03*
X179864000Y-105410000D03*
X177324000Y-105410000D03*
X174784000Y-105410000D03*
X172244000Y-105410000D03*
X169704000Y-105410000D03*
X167164000Y-105410000D03*
X164624000Y-105410000D03*
X162084000Y-105410000D03*
X159544000Y-105410000D03*
X157004000Y-105410000D03*
X154464000Y-105410000D03*
X151924000Y-105410000D03*
D14*
X129064000Y-75664000D03*
D15*
X129064000Y-65504000D03*
D21*
X112554000Y-101826000D03*
D22*
X125254000Y-101826000D03*
D14*
X101886000Y-111224000D03*
D15*
X101886000Y-101064000D03*
D16*
X142526000Y-105850000D03*
X142526000Y-100850000D03*
X92234000Y-70878000D03*
X92234000Y-75878000D03*
D21*
X125254000Y-110462000D03*
D22*
X112554000Y-110462000D03*
D17*
X152432000Y-71628000D03*
D20*
X154972000Y-71628000D03*
X157512000Y-71628000D03*
X160052000Y-71628000D03*
X162592000Y-71628000D03*
X165132000Y-71628000D03*
X167672000Y-71628000D03*
X170212000Y-71628000D03*
X172752000Y-71628000D03*
X175292000Y-71628000D03*
X177832000Y-71628000D03*
X180372000Y-71628000D03*
X182912000Y-71628000D03*
X185452000Y-71628000D03*
X185452000Y-64008000D03*
X182912000Y-64008000D03*
X180372000Y-64008000D03*
X177832000Y-64008000D03*
X175292000Y-64008000D03*
X172752000Y-64008000D03*
X170212000Y-64008000D03*
X167672000Y-64008000D03*
X165132000Y-64008000D03*
X162592000Y-64008000D03*
X160052000Y-64008000D03*
X157512000Y-64008000D03*
X154972000Y-64008000D03*
X152432000Y-64008000D03*
D14*
X135668000Y-101064000D03*
D15*
X135668000Y-111224000D03*
D12*
X172287401Y-118872000D03*
D13*
X174287401Y-118872000D03*
D14*
X109380000Y-65476000D03*
D15*
X109380000Y-75636000D03*
D21*
X112808000Y-66238000D03*
D22*
X125508000Y-66238000D03*
D14*
X108998000Y-101064000D03*
D15*
X108998000Y-111224000D03*
D10*
X192786000Y-120650000D03*
D11*
X192786000Y-115570000D03*
D23*
X196831000Y-61468000D03*
D24*
X196831000Y-56388000D03*
D16*
X92360000Y-106478000D03*
X92360000Y-111478000D03*
D10*
X117380000Y-70584000D03*
D11*
X112300000Y-70584000D03*
D25*
X152178000Y-96266000D03*
D26*
X154718000Y-96266000D03*
X157258000Y-96266000D03*
X159798000Y-96266000D03*
X162338000Y-96266000D03*
X164878000Y-96266000D03*
X167418000Y-96266000D03*
X169958000Y-96266000D03*
X172498000Y-96266000D03*
X175038000Y-96266000D03*
X177578000Y-96266000D03*
X180118000Y-96266000D03*
X182658000Y-96266000D03*
X185198000Y-96266000D03*
X187738000Y-96266000D03*
X190278000Y-96266000D03*
X192818000Y-96266000D03*
X195358000Y-96266000D03*
X197898000Y-96266000D03*
X200438000Y-96266000D03*
X200438000Y-81026000D03*
X197898000Y-81026000D03*
X195358000Y-81026000D03*
X192818000Y-81026000D03*
X190278000Y-81026000D03*
X187738000Y-81026000D03*
X185198000Y-81026000D03*
X182658000Y-81026000D03*
X180118000Y-81026000D03*
X177578000Y-81026000D03*
X175038000Y-81026000D03*
X172498000Y-81026000D03*
X169958000Y-81026000D03*
X167418000Y-81026000D03*
X164878000Y-81026000D03*
X162338000Y-81026000D03*
X159798000Y-81026000D03*
X157258000Y-81026000D03*
X154718000Y-81026000D03*
X152178000Y-81026000D03*
D18*
X95154000Y-81026000D03*
D19*
X97694000Y-81026000D03*
X100234000Y-81026000D03*
X102774000Y-81026000D03*
X105314000Y-81026000D03*
X125634000Y-81026000D03*
X128174000Y-81026000D03*
X130714000Y-81026000D03*
X133254000Y-81026000D03*
X135794000Y-81026000D03*
X138334000Y-81026000D03*
D10*
X120428000Y-106172000D03*
D11*
X125508000Y-106172000D03*
D12*
X172795401Y-76454000D03*
D13*
X174795401Y-76454000D03*
D14*
X132112000Y-111224000D03*
D15*
X132112000Y-101064000D03*
D23*
X84055000Y-72162000D03*
D24*
X84055000Y-77162000D03*
X84055000Y-82162000D03*
X84055000Y-87162000D03*
X84055000Y-92162000D03*
X84055000Y-97162000D03*
X84055000Y-102162000D03*
X84055000Y-107162000D03*
D18*
X200184000Y-103632000D03*
D19*
X200184000Y-106172000D03*
X200184000Y-108712000D03*
D10*
X194564000Y-67056000D03*
D11*
X194564000Y-72136000D03*
D14*
X98076000Y-75636000D03*
D15*
X98076000Y-65476000D03*
D18*
X185198000Y-59436000D03*
D19*
X182658000Y-59436000D03*
X185198000Y-56896000D03*
X182658000Y-56896000D03*
X185198000Y-54356000D03*
X182658000Y-54356000D03*
D18*
X142908000Y-59888000D03*
D19*
X140368000Y-59888000D03*
X137828000Y-59888000D03*
X135288000Y-59888000D03*
X132748000Y-59888000D03*
X112428000Y-59888000D03*
X109888000Y-59888000D03*
X107348000Y-59888000D03*
X104808000Y-59888000D03*
X102268000Y-59888000D03*
X99728000Y-59888000D03*
D10*
X120936000Y-70584000D03*
D11*
X126016000Y-70584000D03*
D14*
X128556000Y-111224000D03*
D15*
X128556000Y-101064000D03*
D14*
X105696000Y-65476000D03*
D15*
X105696000Y-75636000D03*
D14*
X101886000Y-75636000D03*
D15*
X101886000Y-65476000D03*
D27*
X199136000Y-68072000D03*
D28*
X199136000Y-70612000D03*
D18*
X95408000Y-116840000D03*
D19*
X97948000Y-116840000D03*
X100488000Y-116840000D03*
X103028000Y-116840000D03*
X105568000Y-116840000D03*
X125888000Y-116840000D03*
X128428000Y-116840000D03*
X130968000Y-116840000D03*
X133508000Y-116840000D03*
X136048000Y-116840000D03*
X138588000Y-116840000D03*
D10*
X171228000Y-59436000D03*
D11*
X176308000Y-59436000D03*
D14*
X139224000Y-101064000D03*
D15*
X139224000Y-111224000D03*
D14*
X98330000Y-111224000D03*
D15*
X98330000Y-101064000D03*
D10*
X171228000Y-56896000D03*
D11*
X176308000Y-56896000D03*
D10*
X197866000Y-120650000D03*
D11*
X197866000Y-115570000D03*
D14*
X105442000Y-101064000D03*
D15*
X105442000Y-111224000D03*
D17*
X145574000Y-74140000D03*
D16*
X143574000Y-74140000D03*
X142908000Y-70076000D03*
X142908000Y-65076000D03*
X145828000Y-70076000D03*
X145828000Y-65076000D03*
D21*
X125508000Y-74902000D03*
D22*
X112808000Y-74902000D03*
D14*
X136176000Y-65504000D03*
D15*
X136176000Y-75664000D03*
D17*
X144812000Y-110208000D03*
D16*
X142812000Y-110208000D03*
D14*
X139732000Y-65504000D03*
D15*
X139732000Y-75664000D03*
D17*
X92520000Y-66520000D03*
D16*
X94520000Y-66520000D03*
D10*
X195326000Y-120650000D03*
D11*
X195326000Y-115570000D03*
D18*
X195871000Y-108697000D03*
D19*
X193331000Y-108697000D03*
X195871000Y-106157000D03*
X193331000Y-106157000D03*
X195871000Y-103617000D03*
X193331000Y-103617000D03*
D16*
X145320000Y-105850000D03*
X145320000Y-100850000D03*
X95028000Y-106478000D03*
X95028000Y-111478000D03*
M02*
