%TF.GenerationSoftware,KiCad,Pcbnew,8.0.5*%
%TF.CreationDate,2024-12-04T22:36:59+01:00*%
%TF.ProjectId,ESP-Unit,4553502d-556e-4697-942e-6b696361645f,rev?*%
%TF.SameCoordinates,Original*%
%TF.FileFunction,Soldermask,Bot*%
%TF.FilePolarity,Negative*%
%FSLAX46Y46*%
G04 Gerber Fmt 4.6, Leading zero omitted, Abs format (unit mm)*
G04 Created by KiCad (PCBNEW 8.0.5) date 2024-12-04 22:36:59*
%MOMM*%
%LPD*%
G01*
G04 APERTURE LIST*
G04 Aperture macros list*
%AMRoundRect*
0 Rectangle with rounded corners*
0 $1 Rounding radius*
0 $2 $3 $4 $5 $6 $7 $8 $9 X,Y pos of 4 corners*
0 Add a 4 corners polygon primitive as box body*
4,1,4,$2,$3,$4,$5,$6,$7,$8,$9,$2,$3,0*
0 Add four circle primitives for the rounded corners*
1,1,$1+$1,$2,$3*
1,1,$1+$1,$4,$5*
1,1,$1+$1,$6,$7*
1,1,$1+$1,$8,$9*
0 Add four rect primitives between the rounded corners*
20,1,$1+$1,$2,$3,$4,$5,0*
20,1,$1+$1,$4,$5,$6,$7,0*
20,1,$1+$1,$6,$7,$8,$9,0*
20,1,$1+$1,$8,$9,$2,$3,0*%
G04 Aperture macros list end*
%ADD10R,1.600000X2.400000*%
%ADD11O,1.600000X2.400000*%
%ADD12O,1.600000X1.600000*%
%ADD13C,1.600000*%
%ADD14C,0.800000*%
%ADD15C,6.400000*%
%ADD16C,1.500000*%
%ADD17C,1.200000*%
%ADD18R,1.200000X1.200000*%
%ADD19R,1.800000X1.800000*%
%ADD20C,1.800000*%
%ADD21R,2.400000X1.600000*%
%ADD22O,2.400000X1.600000*%
%ADD23O,1.905000X2.000000*%
%ADD24R,1.905000X2.000000*%
%ADD25R,1.700000X1.700000*%
%ADD26O,1.700000X1.700000*%
%ADD27RoundRect,0.875000X-0.875000X-0.875000X0.875000X-0.875000X0.875000X0.875000X-0.875000X0.875000X0*%
%ADD28RoundRect,0.750000X-0.750000X-1.000000X0.750000X-1.000000X0.750000X1.000000X-0.750000X1.000000X0*%
%ADD29R,3.500000X3.500000*%
%ADD30C,2.250000*%
%ADD31RoundRect,0.102000X-0.675000X-0.675000X0.675000X-0.675000X0.675000X0.675000X-0.675000X0.675000X0*%
%ADD32C,1.554000*%
G04 APERTURE END LIST*
D10*
%TO.C,U3*%
X172003000Y-93477000D03*
D11*
X174543000Y-93477000D03*
X177083000Y-93477000D03*
X179623000Y-93477000D03*
X179623000Y-85857000D03*
X177083000Y-85857000D03*
X174543000Y-85857000D03*
X172003000Y-85857000D03*
%TD*%
D12*
%TO.C,R1*%
X172720000Y-68834000D03*
D13*
X172720000Y-66294000D03*
%TD*%
%TO.C,C1*%
X175494000Y-62738000D03*
X172994000Y-62738000D03*
%TD*%
D14*
%TO.C,H4*%
X154064000Y-107776944D03*
X154766944Y-106079888D03*
X154766944Y-109474000D03*
X156464000Y-105376944D03*
D15*
X156464000Y-107776944D03*
D14*
X156464000Y-110176944D03*
X158161056Y-106079888D03*
X158161056Y-109474000D03*
X158864000Y-107776944D03*
%TD*%
D13*
%TO.C,R3*%
X177572000Y-97780000D03*
D12*
X180112000Y-97780000D03*
%TD*%
D13*
%TO.C,R16*%
X245872000Y-79219000D03*
D12*
X245872000Y-81759000D03*
%TD*%
D13*
%TO.C,R14*%
X177552000Y-81524000D03*
D12*
X180092000Y-81524000D03*
%TD*%
D16*
%TO.C,Y1*%
X208280000Y-86270000D03*
X208280000Y-81390000D03*
%TD*%
D13*
%TO.C,R9*%
X188996000Y-82804000D03*
D12*
X186456000Y-82804000D03*
%TD*%
D17*
%TO.C,C7*%
X183907401Y-60706000D03*
D18*
X181907401Y-60706000D03*
%TD*%
D13*
%TO.C,C2*%
X173014000Y-59436000D03*
X175514000Y-59436000D03*
%TD*%
D19*
%TO.C,D5*%
X249423000Y-97819000D03*
D20*
X251963000Y-97819000D03*
%TD*%
D13*
%TO.C,C4*%
X209510000Y-91694000D03*
X207010000Y-91694000D03*
%TD*%
%TO.C,C3*%
X171525000Y-97780000D03*
X174025000Y-97780000D03*
%TD*%
D21*
%TO.C,IC1*%
X201437000Y-99558000D03*
D22*
X201437000Y-97018000D03*
X201437000Y-94478000D03*
X201437000Y-91938000D03*
X201437000Y-89398000D03*
X201437000Y-86858000D03*
X201437000Y-84318000D03*
X201437000Y-81778000D03*
X201437000Y-79238000D03*
X193817000Y-79238000D03*
X193817000Y-81778000D03*
X193817000Y-84318000D03*
X193817000Y-86858000D03*
X193817000Y-89398000D03*
X193817000Y-91938000D03*
X193817000Y-94478000D03*
X193817000Y-97018000D03*
X193817000Y-99558000D03*
%TD*%
D13*
%TO.C,R17*%
X245872000Y-96520000D03*
D12*
X245872000Y-99060000D03*
%TD*%
D20*
%TO.C,D1*%
X167127000Y-55372000D03*
D19*
X164587000Y-55372000D03*
%TD*%
D13*
%TO.C,R8*%
X207215000Y-95758000D03*
D12*
X209755000Y-95758000D03*
%TD*%
D23*
%TO.C,U2*%
X162306000Y-79685000D03*
X159766000Y-79685000D03*
D24*
X157226000Y-79685000D03*
%TD*%
D25*
%TO.C,J3*%
X191008000Y-108433000D03*
D26*
X193548000Y-108433000D03*
X196088000Y-108433000D03*
X198628000Y-108433000D03*
X201168000Y-108433000D03*
X203708000Y-108433000D03*
X206248000Y-108433000D03*
%TD*%
D25*
%TO.C,J2*%
X248153000Y-61727000D03*
D26*
X250693000Y-61727000D03*
X248153000Y-64267000D03*
X250693000Y-64267000D03*
X248153000Y-66807000D03*
X250693000Y-66807000D03*
X248153000Y-69347000D03*
X250693000Y-69347000D03*
X248153000Y-71887000D03*
X250693000Y-71887000D03*
%TD*%
D13*
%TO.C,R10*%
X207215000Y-99568000D03*
D12*
X209755000Y-99568000D03*
%TD*%
D13*
%TO.C,R18*%
X245872000Y-87601000D03*
D12*
X245872000Y-90141000D03*
%TD*%
D13*
%TO.C,C9*%
X209550000Y-68092000D03*
X209550000Y-70592000D03*
%TD*%
%TO.C,R15*%
X179613000Y-78222000D03*
D12*
X177073000Y-78222000D03*
%TD*%
D13*
%TO.C,R12*%
X195580000Y-61722000D03*
D12*
X198120000Y-61722000D03*
%TD*%
D19*
%TO.C,D3*%
X249169000Y-80518000D03*
D20*
X251709000Y-80518000D03*
%TD*%
D14*
%TO.C,H2*%
X247422000Y-107442000D03*
X248124944Y-105744944D03*
X248124944Y-109139056D03*
X249822000Y-105042000D03*
D15*
X249822000Y-107442000D03*
D14*
X249822000Y-109842000D03*
X251519056Y-105744944D03*
X251519056Y-109139056D03*
X252222000Y-107442000D03*
%TD*%
D12*
%TO.C,R6*%
X176022000Y-56134000D03*
D13*
X176022000Y-53594000D03*
%TD*%
D27*
%TO.C,J1*%
X164798000Y-70232000D03*
D28*
X161798000Y-65532000D03*
D29*
X167798000Y-65532000D03*
%TD*%
D13*
%TO.C,R11*%
X188971000Y-94234000D03*
D12*
X186431000Y-94234000D03*
%TD*%
D19*
%TO.C,D2*%
X189230000Y-98552000D03*
D20*
X186690000Y-98552000D03*
%TD*%
D12*
%TO.C,R7*%
X184406401Y-68580000D03*
D13*
X181866401Y-68580000D03*
%TD*%
%TO.C,C6*%
X189210000Y-79248000D03*
X186710000Y-79248000D03*
%TD*%
%TO.C,C8*%
X209522000Y-58371500D03*
X209522000Y-60871500D03*
%TD*%
%TO.C,R13*%
X195551000Y-57404000D03*
D12*
X198091000Y-57404000D03*
%TD*%
D30*
%TO.C,U1*%
X216608000Y-55026000D03*
X216608000Y-107026000D03*
X241608000Y-55026000D03*
X241608000Y-107026000D03*
D31*
X242108000Y-58166000D03*
D32*
X242108000Y-60706000D03*
X242108000Y-63246000D03*
X242108000Y-65786000D03*
X242108000Y-68326000D03*
X242108000Y-70866000D03*
X242108000Y-73406000D03*
X242108000Y-75946000D03*
X242108000Y-78486000D03*
X242108000Y-81026000D03*
X242108000Y-83566000D03*
X242108000Y-86106000D03*
X242108000Y-88646000D03*
X242108000Y-91186000D03*
X242108000Y-93726000D03*
X242108000Y-96266000D03*
X242108000Y-98806000D03*
X242108000Y-101346000D03*
X242108000Y-103886000D03*
D31*
X216108000Y-103886000D03*
D32*
X216108000Y-101346000D03*
X216108000Y-98806000D03*
X216108000Y-96266000D03*
X216108000Y-93726000D03*
X216108000Y-91186000D03*
X216108000Y-88646000D03*
X216108000Y-86106000D03*
X216108000Y-83566000D03*
X216108000Y-81026000D03*
X216108000Y-78486000D03*
X216108000Y-75946000D03*
X216108000Y-73406000D03*
X216108000Y-70866000D03*
X216108000Y-68326000D03*
X216108000Y-65786000D03*
X216108000Y-63246000D03*
X216108000Y-60706000D03*
X216108000Y-58166000D03*
%TD*%
D14*
%TO.C,H3*%
X247108944Y-54944944D03*
X247811888Y-53247888D03*
X247811888Y-56642000D03*
X249508944Y-52544944D03*
D15*
X249508944Y-54944944D03*
D14*
X249508944Y-57344944D03*
X251206000Y-53247888D03*
X251206000Y-56642000D03*
X251908944Y-54944944D03*
%TD*%
D13*
%TO.C,R5*%
X179662000Y-101082000D03*
D12*
X177122000Y-101082000D03*
%TD*%
%TO.C,R4*%
X172466000Y-53115000D03*
D13*
X172466000Y-55655000D03*
%TD*%
D14*
%TO.C,H1*%
X153950000Y-54610000D03*
X154652944Y-52912944D03*
X154652944Y-56307056D03*
X156350000Y-52210000D03*
D15*
X156350000Y-54610000D03*
D14*
X156350000Y-57010000D03*
X158047056Y-52912944D03*
X158047056Y-56307056D03*
X158750000Y-54610000D03*
%TD*%
D19*
%TO.C,D4*%
X249169000Y-88900000D03*
D20*
X251709000Y-88900000D03*
%TD*%
D13*
%TO.C,C10*%
X174259000Y-81524000D03*
X171759000Y-81524000D03*
%TD*%
%TO.C,C5*%
X181661401Y-64770000D03*
X184161401Y-64770000D03*
%TD*%
D12*
%TO.C,R2*%
X176022000Y-68805000D03*
D13*
X176022000Y-66265000D03*
%TD*%
M02*
