M48
INCH
T1C0.0197
T2C0.0236
T3C0.0315
T4C0.0354
T5C0.0394
T6C0.0433
T7C0.1260
%
G90
G05
T1
X6.061Y-2.15
X6.0655Y-4.2432
X6.0887Y-2.0832
X6.0887Y-2.2168
X6.0932Y-4.1764
X6.0932Y-4.31
X6.1555Y-2.0555
X6.1555Y-2.2445
X6.16Y-4.1487
X6.16Y-4.3377
X6.2223Y-2.0832
X6.2223Y-2.2168
X6.2268Y-4.1764
X6.2268Y-4.31
X6.25Y-2.15
X6.2545Y-4.2432
X9.7287Y-2.1632
X9.741Y-4.23
X9.7564Y-2.0964
X9.7564Y-2.23
X9.7687Y-4.1632
X9.7687Y-4.2968
X9.8232Y-2.0687
X9.8232Y-2.2577
X9.8355Y-4.1355
X9.8355Y-4.3245
X9.89Y-2.0964
X9.89Y-2.23
X9.9023Y-4.1632
X9.9023Y-4.2968
X9.9177Y-2.1632
X9.93Y-4.23
T2
X7.1617Y-2.39
X7.2404Y-2.39
T3
X6.753Y-3.8496
X6.7622Y-3.2096
X6.7718Y-3.3802
X6.7718Y-3.6802
X6.79Y-2.0911
X6.79Y-2.1911
X6.8Y-2.61
X6.8Y-2.71
X6.8108Y-2.47
X6.8116Y-2.34
X6.8514Y-3.8496
X6.8606Y-3.2096
X6.8718Y-3.3802
X6.8718Y-3.6802
X6.9092Y-2.47
X6.91Y-2.34
X6.93Y-2.11
X6.93Y-2.21
X6.93Y-2.6089
X6.93Y-2.7089
X6.9714Y-3.0796
X6.9718Y-3.3802
X6.9718Y-3.6802
X6.9733Y-3.9796
X6.9902Y-3.2096
X6.991Y-3.8496
X7.0714Y-3.0796
X7.0718Y-3.3802
X7.0718Y-3.6802
X7.0733Y-3.9796
X7.0902Y-3.2096
X7.091Y-3.8496
X7.152Y-2.55
X7.1601Y-2.7
X7.2504Y-2.55
X7.2601Y-2.7
X7.3398Y-3.71
X7.3408Y-3.26
X7.3508Y-3.12
X7.4398Y-3.71
X7.4408Y-3.26
X7.4492Y-3.12
X7.6306Y-3.1196
X7.6306Y-3.2196
X7.6306Y-3.3196
X7.6306Y-3.4196
X7.6306Y-3.5196
X7.6306Y-3.6196
X7.6306Y-3.7196
X7.6306Y-3.8196
X7.6306Y-3.9196
X7.6989Y-2.26
X7.7Y-2.43
X7.7989Y-2.26
X7.8Y-2.43
X7.9306Y-3.1196
X7.9306Y-3.2196
X7.9306Y-3.3196
X7.9306Y-3.4196
X7.9306Y-3.5196
X7.9306Y-3.6196
X7.9306Y-3.7196
X7.9306Y-3.8196
X7.9306Y-3.9196
X8.15Y-3.61
X8.1581Y-3.77
X8.1581Y-3.92
X8.2Y-3.2043
X8.2Y-3.3965
X8.2484Y-3.61
X8.2489Y-2.2981
X8.2489Y-2.3965
X8.25Y-2.6808
X8.25Y-2.7792
X8.2581Y-3.77
X8.2581Y-3.92
X9.68Y-3.1189
X9.68Y-3.2189
X9.68Y-3.4489
X9.68Y-3.5489
X9.68Y-3.8
X9.68Y-3.9
T4
X6.4798Y-2.18
X6.5798Y-2.18
X7.35Y-3.88
X7.45Y-3.88
X8.5082Y-2.29
X8.5082Y-2.39
X8.5082Y-2.49
X8.5082Y-2.59
X8.5082Y-2.69
X8.5082Y-2.79
X8.5082Y-2.89
X8.5082Y-2.99
X8.5082Y-3.09
X8.5082Y-3.19
X8.5082Y-3.29
X8.5082Y-3.39
X8.5082Y-3.49
X8.5082Y-3.59
X8.5082Y-3.69
X8.5082Y-3.79
X8.5082Y-3.89
X8.5082Y-3.99
X8.5082Y-4.09
X9.5318Y-2.29
X9.5318Y-2.39
X9.5318Y-2.49
X9.5318Y-2.59
X9.5318Y-2.69
X9.5318Y-2.79
X9.5318Y-2.89
X9.5318Y-2.99
X9.5318Y-3.09
X9.5318Y-3.19
X9.5318Y-3.29
X9.5318Y-3.39
X9.5318Y-3.49
X9.5318Y-3.59
X9.5318Y-3.69
X9.5318Y-3.79
X9.5318Y-3.89
X9.5318Y-3.99
X9.5318Y-4.09
X9.8098Y-3.17
X9.8098Y-3.5
X9.8198Y-3.8511
X9.9098Y-3.17
X9.9098Y-3.5
X9.9198Y-3.8511
T5
X7.52Y-4.269
X7.62Y-4.269
X7.72Y-4.269
X7.82Y-4.269
X7.92Y-4.269
X8.02Y-4.269
X8.12Y-4.269
X9.7698Y-2.4302
X9.7698Y-2.5302
X9.7698Y-2.6302
X9.7698Y-2.7302
X9.7698Y-2.8302
X9.8698Y-2.4302
X9.8698Y-2.5302
X9.8698Y-2.6302
X9.8698Y-2.7302
X9.8698Y-2.8302
T6
X6.19Y-3.1372
X6.29Y-3.1372
X6.39Y-3.1372
T7
X6.1555Y-2.15
X6.16Y-4.2432
X9.8232Y-2.1632
X9.8355Y-4.23
T5
G00X6.37Y-2.5406
M15
G01X6.37Y-2.6194
M16
G05
G00X6.4487Y-2.765
M15
G01X6.5275Y-2.765
M16
G05
G00X6.6062Y-2.5406
M15
G01X6.6062Y-2.6194
M16
G05
M30
